# xmcd
#
# Track frame offsets:
#	150
#	19512
#	38724
#	53914
#	69907
#	87087
#	103738
#	119914
#	138542
#	155236
#	171771
#	189974
#	205466
#	219024
#	236104
#	263292
#
# Disc length: 3516 seconds
#
# Revision: 0
# Processed by: cddbd v1.5.2PL0 Copyright (c) Steve Scherf et al.
# Submitted via: audiograbber 1.83.01
#
DISCID=dc0dba10
DTITLE=Avril Lavigne - ASK1534 Avril Lavigne greatest hits
DYEAR=2005
DGENRE=karaoke CD+G
TTITLE0=anything but ordinary
TTITLE1=complicated
TTITLE2=don't tell me
TTITLE3=fall to pieces
TTITLE4=i'm with you
TTITLE5=losing grip
TTITLE6=mobile
TTITLE7=my happy ending
TTITLE8=my world
TTITLE9=naked
TTITLE10=nobodys fool
TTITLE11=sk8ter boi
TTITLE12=take me away
TTITLE13=unwanted
TTITLE14=who knows
TTITLE15=Data Track
EXTD=
EXTT0=
EXTT1=
EXTT2=
EXTT3=
EXTT4=
EXTT5=
EXTT6=
EXTT7=
EXTT8=
EXTT9=
EXTT10=
EXTT11=
EXTT12=
EXTT13=
EXTT14=
EXTT15=
PLAYORDER=
